<svg width="58" height="53" viewBox="0 0 58 53" fill="none" xmlns="http://www.w3.org/2000/svg">
<g id="&#208;&#161;&#208;&#187;&#208;&#190;&#208;&#185; 3">
<path id="Vector" d="M35.4234 36.9957C35.263 37.0004 35.1063 36.9468 34.9825 36.8447C34.9266 36.8021 34.8814 36.747 34.8505 36.6838C34.8196 36.6207 34.8038 36.5512 34.8043 36.4809V16.8182L25.2667 36.6454C25.2117 36.751 25.1268 36.838 25.0226 36.8955C24.9184 36.953 24.7995 36.9784 24.6809 36.9685H24.5178C24.3992 36.9784 24.2803 36.953 24.1761 36.8955C24.0718 36.838 23.9869 36.751 23.932 36.6454L14.4607 17.33V36.4824C14.4603 36.5546 14.444 36.6259 14.413 36.6911C14.3819 36.7564 14.3369 36.8139 14.2811 36.8598C14.1589 36.965 14.0029 37.0229 13.8417 37.0229C13.6804 37.0229 13.5245 36.965 13.4023 36.8598C13.3465 36.8139 13.3015 36.7564 13.2704 36.6911C13.2394 36.6259 13.2231 36.5546 13.2227 36.4824V14.6606C13.2249 14.6136 13.2362 14.5675 13.2559 14.5247C13.2904 14.3992 13.3681 14.2899 13.4752 14.2159C13.5823 14.1419 13.7121 14.108 13.8417 14.1201C13.9605 14.1104 14.0795 14.136 14.1837 14.1937C14.288 14.2515 14.3728 14.3388 14.4275 14.4447L24.5827 35.2156L34.5764 14.4704C34.7062 14.2016 34.9146 14.1231 35.2558 14.1231H35.4234C35.5888 14.1213 35.7494 14.1786 35.8763 14.2847C35.9361 14.3284 35.9848 14.3854 36.0189 14.4511C36.0529 14.5169 36.0713 14.5896 36.0726 14.6636V35.9705H37.7651V14.6606C37.7655 14.5883 37.7816 14.5169 37.8123 14.4514C37.8431 14.386 37.8878 14.328 37.9433 14.2816L38.123 14.1201H38.3827C38.5448 14.1162 38.7024 14.1739 38.8235 14.2816C38.8788 14.3282 38.9233 14.3862 38.9541 14.4516C38.9848 14.517 39.0011 14.5883 39.0017 14.6606V36.4824C39.0023 36.5527 38.9865 36.6222 38.9556 36.6853C38.9247 36.7485 38.8795 36.8036 38.8235 36.8462C38.7929 36.8724 38.7595 36.8952 38.7239 36.9142C38.6175 36.9659 38.501 36.9938 38.3827 36.9957C38.2746 37.0041 38.1661 37.0041 38.0581 36.9957H35.4234Z" fill="#1A3444"/>
<path id="Vector_2" d="M45.2854 14.0319C45.4452 14.0281 45.601 14.0817 45.7247 14.1829C45.7807 14.2256 45.8259 14.2807 45.8568 14.3438C45.8877 14.407 45.9035 14.4765 45.9029 14.5468C45.9026 14.6191 45.8865 14.6905 45.8557 14.756C45.8249 14.8214 45.7802 14.8794 45.7247 14.9258C45.6043 15.0337 45.4471 15.0915 45.2854 15.0873H39.0029V36.0741C39.0051 36.1487 38.99 36.2228 38.9589 36.2907C38.9277 36.3585 38.8813 36.4182 38.8233 36.4652C38.6969 36.5612 38.5426 36.6131 38.3839 36.6131C38.2252 36.6131 38.0709 36.5612 37.9445 36.4652C37.8865 36.4182 37.8401 36.3585 37.8089 36.2907C37.7777 36.2228 37.7627 36.1487 37.7649 36.0741V14.5981C37.7683 14.5135 37.7943 14.4313 37.8402 14.3602C37.8862 14.289 37.9503 14.2314 38.0261 14.1935C38.1531 14.0875 38.3136 14.0303 38.479 14.0319H45.2854ZM40.5384 37.0465C40.3749 37.0478 40.2155 36.9947 40.0855 36.8955C40.0259 36.8552 39.977 36.801 39.9431 36.7376C39.9091 36.6742 39.8912 36.6035 39.8907 36.5316V24.93C39.8919 24.8563 39.9102 24.7839 39.9439 24.7185C39.9777 24.653 40.0262 24.5962 40.0855 24.5525C40.2121 24.446 40.3729 24.3886 40.5384 24.391C40.7003 24.386 40.8577 24.4439 40.9778 24.5525C41.0335 24.5985 41.0784 24.6561 41.1094 24.7214C41.1405 24.7866 41.1569 24.8578 41.1575 24.93V35.9684H45.2914C45.4532 35.9635 45.6107 36.0214 45.7308 36.13C45.7862 36.1761 45.8309 36.2337 45.8617 36.299C45.8925 36.3642 45.9086 36.4353 45.9089 36.5074C45.9095 36.5778 45.8937 36.6472 45.8628 36.7104C45.8319 36.7736 45.7867 36.8287 45.7308 36.8713C45.6071 36.9725 45.4512 37.0261 45.2914 37.0223L40.5384 37.0465ZM47.0157 14.0863C48.9382 14.0715 50.8266 14.5944 52.4677 15.5961C54.1189 16.5965 55.4803 18.0105 56.4175 19.6984C57.3932 21.4209 57.8983 23.37 57.882 25.3497C57.882 27.391 57.3943 29.6241 56.4175 31.3498C55.4795 33.0368 54.1175 34.4497 52.4662 35.449C50.8251 36.4507 48.9367 36.9737 47.0142 36.9589C46.8544 36.9627 46.6985 36.9091 46.5748 36.8079C46.5191 36.762 46.4743 36.7044 46.4435 36.6391C46.4127 36.5738 46.3968 36.5026 46.3968 36.4304C46.3968 36.3583 46.4127 36.287 46.4435 36.2218C46.4743 36.1565 46.5191 36.0989 46.5748 36.053C46.6985 35.9518 46.8544 35.8982 47.0142 35.902C48.7162 35.9128 50.3865 35.4417 51.8321 34.5431C53.309 33.6357 54.5179 32.3517 55.3349 30.8229C56.191 29.2496 56.6198 27.1917 56.6198 25.3482C56.6328 23.5583 56.1907 21.7944 55.3349 20.2223C54.519 18.6933 53.3111 17.4088 51.8351 16.5005C50.3896 15.6019 48.7192 15.1308 47.0172 15.1417C46.8547 15.1452 46.6973 15.0857 46.5778 14.9756C46.5222 14.9296 46.4774 14.872 46.4466 14.8067C46.4158 14.7415 46.3998 14.6703 46.3996 14.5981C46.3991 14.5278 46.4149 14.4583 46.4458 14.3952C46.4767 14.332 46.5219 14.2769 46.5778 14.2342C46.6999 14.1358 46.8528 14.0834 47.0096 14.0863H47.0157Z" fill="#1A3444"/>
<g id="&#208;&#164;&#208;&#184;&#208;&#179;&#209;&#131;&#209;&#128;&#208;&#176; 2">
<path id="Vector_3" fill-rule="evenodd" clip-rule="evenodd" d="M42.3144 7.59725C42.5028 7.50797 42.681 7.39863 42.8459 7.27112C42.8459 7.27112 42.6526 7.39795 42.3144 7.59725ZM27.604 5.89716C16.2062 1.22873 8.92578 -1.97516 4.12297 4.38732C0.13246 9.67177 -0.507713 17.9835 2.06355 28.8302C4.37361 38.5807 9.19756 45.1757 12.9087 48.7405C16.5324 52.2131 21.2974 53.421 24.4424 51.2121C25.9764 50.1325 26.8808 49.136 28.288 46.5436C29.0693 45.0653 29.6685 43.4977 30.0726 41.8752C30.0726 41.8752 25.2668 51.899 19.774 49.7022C14.2812 47.5054 8.06215 40.4242 5.49542 27.044C3.69871 17.6815 4.80995 5.89716 10.1654 4.52472C15.5208 3.15227 22.6608 6.86497 27.604 8.23138C32.5473 9.59779 36.5302 10.0175 38.8645 9.19315C40.061 8.76815 41.2158 8.23392 42.3144 7.59725C40.9209 8.2963 36.6329 9.59628 27.604 5.89716Z" fill="#38BCEA"/>
</g>
<g id="&#208;&#164;&#208;&#184;&#208;&#179;&#209;&#131;&#209;&#128;&#208;&#176; 3">
<path id="Vector_4" fill-rule="evenodd" clip-rule="evenodd" d="M49.8497 3.84533C46.4269 1.50961 43.3499 1.60775 41.1983 1.77836C37.1701 2.09693 33.9209 3.97518 33.9209 3.97518C33.9209 3.97518 40.916 1.94897 45.9996 4.38736C50.4929 6.53738 50.8055 10.2924 50.8055 10.2924C50.8055 10.2924 51.8005 10.5098 53.3103 11.4247C54.7492 12.3004 55.0889 12.7534 55.0889 12.7534C55.0889 12.7534 53.9761 6.63703 49.8497 3.84533Z" fill="#38BCEA"/>
</g>
</g>
</svg>
